<?xml version="1.0" encoding="iso-8859-1"?>
<!-- Generator: Adobe Illustrator 19.0.0, SVG Export Plug-In . SVG Version: 6.00 Build 0)  -->
<svg version="1.1" id="Capa_1" xmlns="http://www.w3.org/2000/svg" xmlns:xlink="http://www.w3.org/1999/xlink" x="0px" y="0px"
	 viewBox="0 0 480 480" style="enable-background:new 0 0 480 480;" xml:space="preserve">
<g>
	<path style="fill:#78B9EB;" d="M64.006,192c-3.442-0.031-6.795,1.096-9.52,3.2c-4.08,2.987-6.488,7.743-6.48,12.8
		c0.026,8.826,7.174,15.974,16,16c3.676,0.007,7.24-1.266,10.08-3.6c6.848-5.584,7.873-15.663,2.289-22.511
		C73.343,194.171,68.803,192.009,64.006,192z"/>
	<circle style="fill:#78B9EB;" cx="240.006" cy="240" r="24"/>
	<circle style="fill:#78B9EB;" cx="416.006" cy="272" r="16"/>
</g>
<g>
	<path style="fill:#1E81CE;" d="M435.582,285.8c7.676-10.724,5.206-25.641-5.519-33.317c-6.534-4.677-14.983-5.754-22.481-2.867
		c-2.944-3.2-5.928-6.4-9.104-9.6c45.552-46.12,66.04-91.2,49.408-120s-65.92-33.6-128.632-17.208C302.062,40.28,273.27,0,240.006,0
		s-62.08,40.312-79.2,102.856c-10.4-2.736-20.664-5.064-30.4-6.648C80.542,88.104,45.694,96.568,32.198,120
		c-10.872,18.84-6.48,44.488,12.312,74.32c-7.65,10.716-5.165,25.604,5.55,33.255c6.53,4.662,14.966,5.727,22.45,2.833
		c2.936,3.2,5.912,6.4,9.08,9.6C36.006,286.12,15.526,331.2,32.158,360c10.4,17.944,33.384,26.584,64.432,26.584
		c21.714-0.416,43.288-3.564,64.216-9.368C177.95,439.72,206.742,480,240.006,480s62.08-40.312,79.24-102.856
		c10.4,2.736,20.664,5.064,30.4,6.648c11.272,1.91,22.68,2.911,34.112,2.992c31.608,0,53.864-9.152,64-26.784
		C458.678,341.184,454.302,315.584,435.582,285.8z M424.006,272c0,4.418-3.582,8-8,8s-8-3.582-8-8s3.582-8,8-8
		S424.006,267.582,424.006,272z M433.998,128c11.848,20.528-5.24,58.896-46.92,100.944c-16.827-15.489-34.681-29.823-53.44-42.904
		c-1.948-22.853-5.474-45.545-10.552-67.912C380.382,103.032,422.142,107.472,433.998,128z M280.006,309.28
		c-13.6,7.856-26.933,14.912-40,21.168c-13.312-6.4-26.712-13.456-40-21.136s-26.08-15.8-38.352-24.192
		c-1.064-14.4-1.648-29.44-1.648-45.12s0.584-30.776,1.656-45.192c11.944-8.152,24.744-16.224,38.344-24.088
		c13.6-7.864,26.952-14.88,40-21.168c13.312,6.4,26.712,13.456,40,21.136c13.288,7.68,26.088,15.784,38.352,24.176
		c1.064,14.4,1.648,29.456,1.648,45.136c0,15.68-0.584,30.776-1.656,45.192C306.406,293.344,293.606,301.416,280.006,309.28
		L280.006,309.28z M316.454,305.664c-1.883,17.349-4.738,34.579-8.552,51.608c-16.721-5.167-33.138-11.267-49.176-18.272
		c9.696-4.928,19.456-10.213,29.28-15.856C297.83,317.501,307.313,311.675,316.454,305.664z M221.454,339
		c-16.072,7.087-32.53,13.265-49.296,18.504c-3.843-17.126-6.717-34.455-8.608-51.904c9.256,6.04,18.704,11.952,28.456,17.6
		S211.63,334.016,221.454,339L221.454,339z M144.902,273.2c-14.057-10.349-27.533-21.465-40.368-33.296
		c12.826-11.82,26.306-22.909,40.376-33.216c-0.603,10.875-0.904,21.979-0.904,33.312C144.006,251.296,144.326,262.4,144.902,273.2
		L144.902,273.2z M163.558,174.336c1.883-17.349,4.738-34.579,8.552-51.608c16.72,5.168,33.138,11.268,49.176,18.272
		c-9.696,4.928-19.456,10.213-29.28,15.856C182.182,162.499,172.7,168.325,163.558,174.336z M258.558,141
		c16.072-7.087,32.53-13.265,49.296-18.504c3.843,17.126,6.717,34.455,8.608,51.904c-9.256-6.032-18.704-11.944-28.456-17.6
		S268.382,145.984,258.558,141z M335.11,206.784c14.073,10.341,27.568,21.445,40.424,33.264
		c-12.843,11.837-26.342,22.943-40.432,33.264c0.603-10.869,0.904-21.973,0.904-33.312
		C336.006,228.696,335.686,217.6,335.11,206.784L335.11,206.784z M240.006,16c23.712,0,48.432,33.944,64,91.112
		c-21.912,6.784-43.331,15.07-64.104,24.8c-20.709-9.687-42.058-17.944-63.896-24.712C191.55,49.976,216.286,16,240.006,16z
		 M56.006,208c-0.017-2.509,1.174-4.873,3.2-6.352c0.072-0.056,0.168-0.064,0.248-0.12c1.304-1.003,2.907-1.541,4.552-1.528
		c4.418,0.02,7.984,3.618,7.964,8.036c-0.011,2.4-1.099,4.669-2.964,6.18c-1.409,1.156-3.177,1.787-5,1.784
		C59.588,216,56.006,212.418,56.006,208z M64.006,184c-2.249-0.001-4.487,0.314-6.648,0.936
		C42.55,161.112,38.518,141.048,46.062,128c9.792-17.008,39.576-22.832,81.704-16c9.336,1.512,19.112,3.736,29.104,6.4
		c-5.033,22.248-8.529,44.816-10.464,67.544c-18.732,13.061-36.545,27.393-53.312,42.896c-2.864-2.888-5.736-5.776-8.4-8.664
		c6.725-11.422,2.916-26.133-8.506-32.858C72.496,185.145,68.29,183.999,64.006,184L64.006,184z M46.014,352
		c-11.848-20.528,5.24-58.896,46.92-100.944c16.827,15.489,34.681,29.823,53.44,42.904c1.948,22.853,5.474,45.545,10.552,67.912
		C99.63,376.968,57.87,372.528,46.014,352z M240.006,464c-23.712,0-48.44-33.952-64-91.128c21.909-6.777,43.323-15.064,64.088-24.8
		c20.715,9.691,42.069,17.953,63.912,24.728C288.462,430.024,263.726,464,240.006,464z M433.95,352c-9.8,17-39.568,22.824-81.704,16
		c-9.336-1.512-19.112-3.736-29.104-6.4c5.033-22.248,8.529-44.816,10.464-67.544c18.739-13.067,36.557-27.407,53.328-42.92
		c2.928,2.952,5.672,5.896,8.392,8.848c-2.157,3.638-3.303,7.786-3.32,12.016c0,13.255,10.745,24,24,24
		c2.202-0.031,4.388-0.371,6.496-1.008C437.318,318.824,441.494,338.952,433.95,352L433.95,352z"/>
	<path style="fill:#1E81CE;" d="M240.006,208c-17.673,0-32,14.327-32,32c0,17.673,14.327,32,32,32s32-14.327,32-32
		C272.006,222.327,257.679,208,240.006,208z M240.006,256c-8.837,0-16-7.163-16-16s7.163-16,16-16c8.837,0,16,7.163,16,16
		S248.843,256,240.006,256z"/>
</g>
<g>
</g>
<g>
</g>
<g>
</g>
<g>
</g>
<g>
</g>
<g>
</g>
<g>
</g>
<g>
</g>
<g>
</g>
<g>
</g>
<g>
</g>
<g>
</g>
<g>
</g>
<g>
</g>
<g>
</g>
</svg>
